<svg id="visual" viewBox="0 0 900 600" width="900" height="600" xmlns="http://www.w3.org/2000/svg" xmlns:xlink="http://www.w3.org/1999/xlink" version="1.1"><rect x="0" y="0" width="900" height="600" fill="#fff"></rect><path d="M485 600L481.5 585.7C478 571.3 471 542.7 472.3 514.2C473.7 485.7 483.3 457.3 480.3 428.8C477.3 400.3 461.7 371.7 452 343C442.3 314.3 438.7 285.7 432.2 257C425.7 228.3 416.3 199.7 414.3 171.2C412.3 142.7 417.7 114.3 419.7 85.8C421.7 57.3 420.3 28.7 419.7 14.3L419 0L900 0L900 14.3C900 28.7 900 57.3 900 85.8C900 114.3 900 142.7 900 171.2C900 199.7 900 228.3 900 257C900 285.7 900 314.3 900 343C900 371.7 900 400.3 900 428.8C900 457.3 900 485.7 900 514.2C900 542.7 900 571.3 900 585.7L900 600Z" fill="#C2D9FF" stroke-linecap="round" stroke-linejoin="miter"></path></svg>